# xmcd
#
# Track frame offsets:
#	150
#	20955
#	43553
#	60475
#	79145
#	93735
#	118343
#	133693
#	150463
#	164715
#	179165
#	194493
#	208510
#	223685
#	238803
#	257543
#	267513
#	285310
#
# Disc length: 4172
#
# Revision: 2
# Processed by: cddbd v1.5.1PL0 Copyright (c) Steve Scherf et al.
# Submitted via: CDex 1.30Release
# Normalized: r1:DSETVAR1
#
DISCID=19104a12
DTITLE=Various Artist - San Francisco Blues Festival "European Sessions"
DYEAR=1980
DGENRE=Blues
TTITLE0=Mean Mistreatin' Mama - Elmore James
TTITLE1=Paris Blues - Clarence E. Smith
TTITLE2=Up Above My Head - Clarence E. Smith
TTITLE3=Tuck's Blues - Luther Tucker
TTITLE4=Ska Me Blues - Luther Tucker
TTITLE5=Lonesome Boulevards - Tom Mazzolini
TTITLE6=Digne - Willie Littlefield
TTITLE7=Lonesome And Blue - Willie Littlefield
TTITLE8=Outskirts Of Paris Boogie - Willie Littlefield
TTITLE9=Love Has Struck Me Down - Ron Thompson
TTITLE10=My Little Woman - Pamela Banks
TTITLE11=Blue Sparks - / Ron Thompson
TTITLE12=Blues In France - J.C. Burris
TTITLE13=Airplane Blues - J.C. Burris
TTITLE14=Black President - J.C. Burris
TTITLE15=Baby Don't Treat Me This Way - John Sandifer
TTITLE16=Blues Is Somethin' - John Sandifer
TTITLE17=They Call It The Boogie - John Sandifer
EXTD=YEAR: 1980 ID3G:   0
EXTT0=
EXTT1=
EXTT2=
EXTT3=
EXTT4=
EXTT5=
EXTT6=
EXTT7=
EXTT8=
EXTT9=
EXTT10=
EXTT11=
EXTT12=
EXTT13=
EXTT14=
EXTT15=
EXTT16=
EXTT17=
PLAYORDER=
